<svg class="leaf-loader"
    xmlns="http://www.w3.org/2000/svg"
    xmlns:xlink="http://www.w3.org/1999/xlink" viewBox="0 0 300 300" text-rendering="geometricPrecision" preserveAspectRatio="xMidYMid meet">
    <g class="leaf-tr leaf-1_tr">
        <g class="leaf leaf-1">
            <path class="leaf-greens leaf-1-greens" d="M179.083891,44.81769c-1.596041-1.612286-43.30529-1.127786-56.226839,18.02117s-3.103535,26.605201,6.913445,26.550014s14.762109-5.474568,25.906507-19.543367c11.120844-14.039064,25.002928-23.415531,23.406887-25.027817Z" transform="matrix(1.704482 0.518406-.518407 1.704482-64.413393-130.559831)"/>
            <path class="leaf-stem leaf-1-stem" d="M121.059115,97.719191c3.104944-9.21535,5.635407-16.229982,11.17165-22.149611s16.690922-17.846771,27.621874-25.225752" transform="matrix(1.704482 0.518406-.518407 1.704482-69.748965-126.096179)"/>
        </g>
    </g>
    <g class="leaf-tr leaf-2_tr">
        <g class="leaf leaf-2">
            <path class="leaf-greens leaf-2-greens" d="M179.083891,44.81769c-4.160679-4.249034-42.016553-9.140532-54.938102,10.008424s-4.392272,34.617947,5.624708,34.56276s14.762109-5.474568,25.906507-19.543367c11.120844-14.039064,27.567566-20.778783,23.406887-25.027817Z" transform="matrix(1.704482 0.518406-.518407 1.704482-64.413393-130.559831)"/>
            <path class="leaf-stem leaf-2-stem" d="M121.059115,97.719191c3.104944-9.21535,5.635407-16.229982,11.17165-22.149611s16.690922-17.846771,27.621874-25.225752" transform="matrix(1.704482 0.518406-.518407 1.704482-69.748965-126.096179)"/>
        </g>
    </g>
    <g class="leaf-tr leaf-3_tr">
        <g class="leaf leaf-3">
            <path class="leaf-greens leaf-3-greens" d="M174.348089,40.137827c-1.596041-1.612286-42.12626,8.695848-51.473174,25.95169s2.222124,21.269402,6.895582,23.299357s14.559616.073905,25.704014-13.994894c11.120844-14.039064,20.469619-33.643867,18.873578-35.256153Z" transform="matrix(1.704482 0.518406-.518407 1.704482-64.413393-130.559831)"/>
            <path class="leaf-stem leaf-3-stem" d="M121.059115,97.719191c3.104944-9.21535,5.635407-16.229982,11.17165-22.149611s16.690922-17.846771,27.621874-25.225752" transform="matrix(1.704482 0.518406-.518407 1.704482-69.748965-126.096179)"/>
        </g>
    </g>
</svg>
